<?xml version="1.0" encoding="UTF-8" standalone="no"?>
<!-- Created with Inkscape (http://www.inkscape.org/) -->

<svg
   width="575"
   height="123"
   viewBox="0 0 152.13547 32.543752"
   version="1.1"
   id="svg5"
   sodipodi:docname="garganttua-events.svg"
   inkscape:version="1.2.2 (732a01da63, 2022-12-09)"
   inkscape:export-filename="garganttua-api.png"
   inkscape:export-xdpi="141.35451"
   inkscape:export-ydpi="141.35451"
   xmlns:inkscape="http://www.inkscape.org/namespaces/inkscape"
   xmlns:sodipodi="http://sodipodi.sourceforge.net/DTD/sodipodi-0.dtd"
   xmlns="http://www.w3.org/2000/svg"
   xmlns:svg="http://www.w3.org/2000/svg">
  <sodipodi:namedview
     id="namedview7"
     pagecolor="#ffffff"
     bordercolor="#666666"
     borderopacity="1.0"
     inkscape:pageshadow="2"
     inkscape:pageopacity="0"
     inkscape:pagecheckerboard="0"
     inkscape:document-units="mm"
     showgrid="false"
     inkscape:snap-grids="true"
     inkscape:snap-global="false"
     inkscape:snap-bbox="false"
     showguides="true"
     inkscape:lockguides="true"
     inkscape:guide-bbox="true"
     inkscape:zoom="2.0000001"
     inkscape:cx="367.74998"
     inkscape:cy="87.749996"
     inkscape:window-width="1920"
     inkscape:window-height="1027"
     inkscape:window-x="1072"
     inkscape:window-y="-8"
     inkscape:window-maximized="1"
     inkscape:current-layer="g998"
     units="px"
     inkscape:showpageshadow="2"
     inkscape:deskcolor="#d1d1d1">
    <inkscape:grid
       type="xygrid"
       id="grid664"
       empcolor="#ff3f57"
       empopacity="0.25098039" />
  </sodipodi:namedview>
  <defs
     id="defs2">
    <rect
       x="417.19299"
       y="118.08683"
       width="729.0271"
       height="159.09903"
       id="rect24860" />
    <rect
       x="417.19299"
       y="118.08683"
       width="729.0271"
       height="159.09903"
       id="rect24860-5" />
  </defs>
  <g
     inkscape:label="Calque 1"
     inkscape:groupmode="layer"
     id="layer1">
    <g
       id="g56910"
       transform="matrix(0.3412352,0,0,0.3412352,0.49336884,0.0246624)">
      <text
         xml:space="preserve"
         style="font-style:italic;font-size:6.35px;line-height:1.25;font-family:sans-serif;-inkscape-font-specification:'sans-serif, Italic';font-variant-ligatures:none;stroke-width:0.264583"
         x="87.744583"
         y="-18.708866"
         id="text13450"><tspan
           sodipodi:role="line"
           id="tspan13448"
           style="stroke-width:0.264583"
           x="87.744583"
           y="-18.708866" /></text>
      <text
         xml:space="preserve"
         transform="scale(0.26458333)"
         id="text24858"
         style="font-style:italic;font-size:24px;line-height:1.25;font-family:sans-serif;-inkscape-font-specification:'sans-serif, Italic';font-variant-ligatures:none;white-space:pre;shape-inside:url(#rect24860);display:inline" />
      <g
         id="g998"
         inkscape:export-filename="C:\Users\jeremy.colombet\Desktop\Perso\G.png"
         inkscape:export-xdpi="141.35451"
         inkscape:export-ydpi="141.35451">
        <path
           id="text6053"
           style="font-style:normal;font-weight:normal;font-size:34.0559px;line-height:1.25;font-family:sans-serif;fill:#ffffff;fill-opacity:1;stroke:none;stroke-width:0.357337;stroke-miterlimit:4;stroke-dasharray:none;stroke-opacity:1"
           d="m 303.8857,21.158735 c 0.0169,3.408317 -0.0569,6.817844 0.0454,10.225209 -1.54637,-0.197106 -3.56445,-0.391942 -4.37752,1.304993 -0.44749,2.287468 0.08,4.628763 -0.16935,6.933816 -0.0778,1.483032 1.46,2.024491 2.67192,1.784042 1.08273,-0.07829 2.34828,-0.437504 1.86466,1.161199 0.13407,8.041301 -0.61588,16.183062 0.77942,24.143406 1.42255,5.227396 6.56788,9.054105 11.9711,9.037878 4.03869,0.357637 8.02563,-0.608319 11.94312,-1.457447 0,-3.47861 0,-6.957218 0,-10.435826 -3.82137,0.498299 -7.68068,2.580048 -11.54684,1.303972 -2.46017,-1.430802 -1.87779,-4.70722 -2.0557,-7.113617 -0.11397,-5.574279 0.055,-11.166447 -0.0503,-16.730417 5.76804,0.103838 11.54772,0.0084 17.32007,0.04129 0.20256,8.444486 -0.65897,16.991245 0.79372,25.354233 1.40922,5.146443 6.41791,8.973802 11.75198,9.018563 4.10956,0.409093 8.1764,-0.567021 12.16248,-1.438205 0,-3.481364 0,-6.962724 0,-10.444085 -3.74449,0.494793 -7.5149,2.524122 -11.31545,1.36694 -2.5258,-1.05415 -2.1447,-4.288924 -2.29699,-6.534026 -0.0497,-5.773796 -0.0148,-11.549063 -0.0321,-17.32342 4.54823,0 9.09643,0 13.64464,0 0,-3.343704 0,-6.68741 0,-10.031114 -4.54821,0 -9.09641,0 -13.64464,0 0,-3.762182 0,-7.524364 0,-11.286548 -3.69472,0 -7.38946,0 -11.08418,0 0,3.762184 0,7.524366 0,11.286548 -5.76235,0 -11.5247,0 -17.28704,0 -3e-5,-3.762182 0,-7.524364 0,-11.286548 -3.69612,0 -7.39223,0 -11.08835,0 0,0.373051 0,0.746103 0,1.119156 z m -117.71792,9.097793 c -9.37317,0.338085 -17.40757,8.469179 -18.40467,17.664697 -1.02406,6.512466 -0.24309,13.55302 3.17423,19.27986 5.09928,8.033636 16.52746,9.212297 24.36126,4.699632 0.0224,3.035805 -1.55477,6.433309 -4.78222,7.099005 -5.91563,1.532332 -11.88067,-0.677203 -17.5154,-2.325555 -1.46414,-0.771326 -2.01453,-0.35815 -1.63593,1.25668 0.12982,3.288254 0.10071,6.579323 0.10497,9.869329 7.94464,2.080502 16.69403,3.455831 24.53533,0.230142 6.20652,-2.295009 9.62486,-8.912848 10.15906,-15.211152 0.47237,-10.579012 0.0883,-21.1792 0.23073,-31.766701 0,-3.257255 0,-6.514508 0,-9.771764 -3.57595,0.297404 -7.27282,-0.454579 -10.75381,0.565772 -1.67096,-0.600799 -3.32274,-1.256685 -5.12448,-1.361839 -1.44131,-0.196345 -2.89538,-0.262353 -4.34912,-0.228106 z m 92.78676,0.0165 c -3.46038,0.150061 -6.77863,1.696332 -9.70901,3.254228 -0.22561,-1.76998 -2.14014,-2.469703 -3.71343,-2.2221 -2.16068,-0.02226 -4.32181,0.07434 -6.48285,0.01691 -1.56711,1.479424 -0.60082,3.758939 -0.87138,5.62469 0,12.709931 0,25.419861 0,38.129792 3.69472,0 7.38946,-2e-6 11.08418,0 0,-10.141239 0,-20.282478 0,-30.423715 3.56282,-2.586396 8.35344,-4.767272 12.71038,-2.925673 2.69015,1.830288 2.25329,5.505091 2.34895,8.352033 0.14484,8.331657 0.0671,16.664909 0.0803,24.997355 3.70161,0 7.40323,-2e-6 11.10484,0 -0.26119,-11.149141 0.51047,-22.344549 -0.57602,-33.458638 -1.17468,-5.989663 -6.50063,-11.119946 -12.73648,-11.275968 -1.07571,-0.108683 -2.15982,-0.08942 -3.23945,-0.06883 z m -169.00918,0.144537 c -4.48186,0.197149 -8.87264,1.19172 -13.22339,2.221795 0,3.73878 0,7.477561 0,11.216343 4.12593,-0.751758 8.03822,-2.396384 12.19922,-2.969273 2.96262,-0.207108 6.85899,-0.654945 9.60988,1.325642 0.91205,0.544747 1.23642,1.601266 1.42889,2.58108 -7.3346,0.512989 -15.28215,0.666642 -21.504648,5.119254 -7.78379,5.841304 -6.725972,19.626354 1.928478,24.137392 6.00519,3.461882 13.71289,2.332402 19.46466,-0.996909 -0.5517,1.600772 1.32673,2.482041 2.64641,2.046384 2.85639,-0.0523 5.73386,-0.01077 8.59885,-0.02281 -0.23327,-11.198621 0.44948,-22.437635 -0.48903,-33.606382 -1.34525,-6.124116 -7.34189,-10.381616 -13.43631,-10.739848 -2.39137,-0.325646 -4.81337,-0.334546 -7.22301,-0.312663 z m 118.84536,0 c -4.48346,0.197488 -8.87512,1.191574 -13.22753,2.221795 0,3.73878 0,7.477561 0,11.216343 5.2057,-0.958239 10.15876,-3.332057 15.54325,-3.157504 2.54501,-0.01522 5.74032,0.278966 7.23437,2.622517 1.09354,1.585717 -0.28508,1.67514 -1.64522,1.617611 -6.87312,0.443515 -14.34773,0.982514 -19.97194,5.406475 -6.77983,5.862561 -6.09914,18.022635 1.37753,23.016784 6.08703,4.225884 14.44641,3.280286 20.59676,-0.316955 -0.13257,0.945215 0.17634,2.485482 1.42144,2.063294 3.27313,-0.0348 6.5464,-0.03446 9.81967,-0.03146 -0.23569,-11.20264 0.45468,-22.446455 -0.49354,-33.618672 -1.34074,-6.07719 -7.26201,-10.316138 -13.31192,-10.70762 -2.42951,-0.345525 -4.89332,-0.353497 -7.34287,-0.332601 z m 191.13212,0 c -4.48344,0.197488 -8.87512,1.191574 -13.22752,2.221795 0,3.73878 0,7.477561 0,11.216343 4.87608,-0.860707 9.60771,-3.103994 14.48482,-3.125176 2.82262,-0.12177 6.24623,-0.01987 8.17914,2.352917 0.53826,0.950119 0.93133,2.201308 -0.68764,1.798863 -7.07043,0.454535 -14.74305,0.858854 -20.62176,5.291883 -7.05421,5.86248 -6.35616,18.493672 1.4839,23.369796 5.91117,3.984537 13.88799,3.088951 19.86254,-0.286573 0.95239,-0.836435 0.66037,1.280487 1.67679,1.42672 2.65407,0.928453 5.59635,0.03871 8.33793,0.495568 1.88277,-0.09071 1.72433,-2.262566 1.63538,-3.621773 -0.13829,-10.030411 0.41514,-20.100731 -0.46879,-30.100142 -1.34073,-6.077189 -7.26198,-10.316137 -13.31192,-10.70762 -2.42951,-0.345523 -4.89331,-0.353497 -7.34287,-0.332601 z m -272.81818,0.863139 c -2.58657,0.08648 -5.1791,0.0267 -7.76801,0.04542 0,14.583452 0,29.166902 0,43.750353 3.69472,0 7.38946,-2e-6 11.08419,0 0,-9.684217 0,-19.368431 0,-29.052646 3.94994,-3.225258 9.47908,-4.652616 14.41275,-3.097298 2.17382,0.417025 4.23632,-1.847525 3.52423,-3.969388 -0.0829,-2.29071 -0.0233,-4.58359 -0.0387,-6.875272 -5.92789,-1.421578 -12.62144,-0.940708 -17.67524,2.700843 -0.70285,-0.210701 0.0792,-1.113357 -0.34277,-1.610594 -0.43336,-1.32349 -1.88785,-1.954081 -3.19641,-1.891416 z m 213.10643,1.164583 c 0.20108,10.674286 -0.45838,21.384412 0.494,32.030538 1.1055,6.229722 6.69645,11.455861 13.11072,11.630758 4.40931,0.465627 8.8812,-1.063571 12.60666,-3.148653 0.0681,2.076153 2.48965,2.33221 4.08934,2.089133 2.33347,0.0289 4.67695,0.03398 7.0155,0.02529 0,-14.582073 0,-29.164146 0,-43.746221 -3.69472,0 -7.38945,0 -11.08418,0 0,10.146745 0,20.293489 0,30.440236 -3.5795,2.540304 -8.35585,4.732286 -12.7112,2.941048 -2.72796,-1.945086 -2.31176,-5.706512 -2.37743,-8.664 -0.0857,-8.238826 -0.0516,-16.478175 -0.055,-24.717284 -3.69611,0 -7.39222,0 -11.08832,0 0,0.373054 0,0.746105 0,1.119157 z m -170.818,8.263588 c 2.0263,0.18423 4.02063,0.673172 5.91791,1.404109 0,6.264798 0,12.529597 0,18.794398 -3.83624,2.573806 -9.20308,4.216747 -13.45997,1.698963 -3.11078,-2.455507 -3.08513,-6.877887 -3.19936,-10.396999 -0.0801,-4.355406 1.61808,-9.583699 6.16568,-11.05033 1.47482,-0.473628 3.0401,-0.541563 4.57574,-0.450141 z m -69.86675,13.900669 c 1.09559,1.011409 0.32515,2.810831 0.52047,4.146241 -0.20574,1.134671 0.4052,2.683896 -0.3429,3.543315 -3.82607,2.695446 -9.08538,4.428644 -13.54742,2.304229 -2.81474,-2.061596 -1.83849,-7.048752 1.4909,-8.017091 3.71288,-1.696226 7.92852,-1.409149 11.87895,-1.976694 z m 119.34917,7.437642 c -3.89766,2.917961 -9.44281,4.78535 -14.04107,2.420021 -2.76103,-2.275937 -1.38372,-7.477454 2.15521,-8.094083 3.79616,-1.414863 7.90527,-1.36475 11.88586,-1.730543 0,2.468203 0,4.936403 0,7.404605 z m 191.13213,-0.0043 c -3.89252,2.922248 -9.46054,4.800773 -14.05346,2.415892 -2.71414,-2.254127 -1.40104,-7.390966 2.08079,-8.053014 3.81753,-1.451627 7.96137,-1.400215 11.97267,-1.759222 0,2.465448 0,4.930896 0,7.396344 z"
           inkscape:export-filename="GarganttuaCloud.png"
           inkscape:export-xdpi="51.292572"
           inkscape:export-ydpi="51.292572" />
        <path
           id="path688"
           style="fill:#e68700;fill-opacity:1;fill-rule:evenodd;stroke:none;stroke-width:0.357337;stroke-miterlimit:4;stroke-dasharray:none;stroke-opacity:1"
           d="m 26.897871,45.215567 c -0.926248,0.601018 -5.785146,3.044219 -4.425132,2.362288 0.884724,-0.443616 1.16983,-3.16873 0.724221,-5.469921 -1.340237,-8.917351 2.385228,-17.926984 9.712943,-23.409275 6.241884,-4.731122 14.865856,-6.782945 22.39733,-4.229523 3.613649,1.253618 5.33929,2.762658 8.382017,3.949639 3.042726,1.186982 6.151653,-0.679778 8.222468,-1.893906 2.070816,-1.21413 4.133607,-2.395781 6.386104,-3.700822 -1.990053,-0.0081 -3.573989,-0.232787 -5.420405,-1.017998 C 66.890748,8.7183841 61.336509,4.2608465 54.449972,3.3978646 42.162169,1.1949062 29.013234,6.1183851 21.004954,15.651968 13.403896,24.429225 10.33889,37.169981 13.271771,48.353303 c 0.595568,3.071639 -0.288096,4.936854 -2.097487,6.122769 -6.7747052,3.91128 -2.8867558,1.683285 -9.6603919,5.596415 -0.67774778,0.409807 -0.918555,1.189975 -0.66853588,1.711431 0.45187318,0.942462 1.62484418,1.649969 2.75149818,2.388237 2.9273542,1.918223 7.7316226,2.110834 9.3022056,1.210308 2.355246,-1.350432 2.981011,-1.732422 7.068609,-4.100278 1.233486,1.322442 1.791291,2.041067 2.642748,2.824611 9.161143,9.566262 23.812076,13.491312 36.468037,9.430534 11.697672,-3.511226 21.30814,-13.294503 24.338892,-25.163283 2.001577,-7.446047 1.307142,-15.695765 -1.474842,-22.868922 2.207473,-1.272175 7.413571,-4.226799 7.909234,-4.616703 0.495662,-0.389906 2.334596,-2.673156 2.772413,-6.408837 0.437814,-3.73568 0.06705,-4.9757235 -0.649195,-5.4822559 C 91.258712,8.4907966 90.155887,8.8912604 89.607936,9.2047593 74.979354,17.704908 48.543406,32.781511 26.897871,45.215567 Z m 45.783518,-14.35826 c 3.228561,9.224956 0.497093,20.5585 -6.837296,27.043317 -6.899172,6.452338 -17.475102,8.504323 -26.283791,5.08421 -3.803781,-1.442248 -7.425467,-4.066267 -9.974011,-7.242232 1.355282,-0.788237 1.734648,-1.000073 2.462129,-1.424955 14.213529,-8.003345 25.975354,-15.009958 38.194362,-22.047371 z"
           sodipodi:nodetypes="csccczzcccccccsssccccczzzccccccccc"
           inkscape:export-filename="C:\Users\jeremy.colombet\Desktop\Perso\G.png"
           inkscape:export-xdpi="51.292572"
           inkscape:export-ydpi="51.292572" />
        <text
           xml:space="preserve"
           style="font-style:italic;font-variant:normal;font-weight:bold;font-stretch:normal;font-size:62.5098px;font-family:Arial;-inkscape-font-specification:'Arial, Bold Italic';font-variant-ligatures:normal;font-variant-caps:normal;font-variant-numeric:normal;font-variant-east-asian:normal;fill:#ffffff;fill-opacity:1;stroke:none;stroke-width:2.05138"
           x="211.58832"
           y="150.68271"
           id="text344"
           transform="scale(1.0671949,0.93703596)"><tspan
             sodipodi:role="line"
             id="tspan342"
             style="font-style:italic;font-variant:normal;font-weight:bold;font-stretch:normal;font-size:62.5098px;font-family:Arial;-inkscape-font-specification:'Arial, Bold Italic';font-variant-ligatures:normal;font-variant-caps:normal;font-variant-numeric:normal;font-variant-east-asian:normal;fill:#ffffff;fill-opacity:1;stroke:none;stroke-width:2.05138;stroke-opacity:1"
             x="211.58832"
             y="150.68271">Events</tspan></text>
      </g>
    </g>
  </g>
</svg>
